<?xml version="1.0" standalone="no"?>
<!DOCTYPE svg PUBLIC "-//W3C//DTD SVG 1.1//EN" "http://www.w3.org/Graphics/SVG/1.1/DTD/svg11.dtd" >
<svg xmlns="http://www.w3.org/2000/svg">
<metadata></metadata>
<defs>
<font id="mc_saatchi_heavyregular" horiz-adv-x="450" >
<font-face units-per-em="2048" ascent="1536" descent="-512" />
<missing-glyph horiz-adv-x="411" />
<glyph unicode="FI" horiz-adv-x="1128" d="M51 0v1458h641v-307h-311v-248h287v-301h-287v-602h-330zM739 0v1458h338v-1458h-338z" />
<glyph unicode="FL" horiz-adv-x="1415" d="M51 0v1458h641v-307h-311v-248h287v-301h-287v-602h-330zM739 0v1458h338v-1147h328v-311h-666z" />
<glyph horiz-adv-x="2048" />
<glyph horiz-adv-x="2048" />
<glyph unicode="&#xd;" horiz-adv-x="411" />
<glyph unicode=" "  horiz-adv-x="411" />
<glyph unicode="&#x09;" horiz-adv-x="411" />
<glyph unicode="&#xa0;" horiz-adv-x="411" />
<glyph unicode="!" horiz-adv-x="7917" d="M31 0v1458h448l99 -909h2l110 909h426l2 -1458h-291v973l-110 -973h-277l-110 977v-977h-299zM1130 385q0 145 56.5 248.5t148.5 171.5q-45 68 -76.5 146.5t-31.5 170.5q0 82 23.5 147.5t64.5 111.5t96 71t121 25q72 0 133 -18.5t106.5 -59.5t71 -105.5t25.5 -156.5 q0 -70 -15.5 -123t-41 -97.5t-59.5 -83t-71 -77.5l107 -197q12 39 23.5 78t11.5 80h258q-6 -125 -44 -243t-100 -189l160 -287h-319l-49 94q-57 -55 -135 -81.5t-144 -26.5q-98 0 -160.5 41t-98.5 101t-48.5 130t-12.5 129zM1401 408q0 -53 26.5 -90t67.5 -37q35 0 65.5 14 t47.5 31l-129 233q-8 -6 -21.5 -18.5t-26 -33t-21.5 -45t-9 -54.5zM1473 1163q0 -53 24 -98l43 -82q8 6 21.5 23.5t27 41t23.5 51t10 56.5q0 49 -21.5 65.5t-54.5 16.5q-74 0 -73 -74zM2085 739q0 168 5 302.5t41 228.5t114.5 145t224.5 51q121 0 192.5 -36.5t110.5 -97 t50 -138.5t11 -162v-104h-292v116q0 23 -1 51.5t-7.5 53.5t-18.5 42t-37 17q-29 0 -45 -15t-24.5 -65.5t-9.5 -142.5t-1 -246q0 -158 2 -253t10.5 -145t23.5 -66.5t44 -16.5q37 0 53.5 54.5t16.5 189.5v110h293v-90q0 -252 -87.5 -394t-285.5 -142q-145 0 -224 53 t-114 151.5t-40 237.5t-5 311zM2927 414v39l282 -2v-66q0 -53 17.5 -90t56.5 -37q41 0 65.5 39t16.5 86q-6 39 -22.5 67.5t-37 50t-41 37t-34.5 27.5q-59 43 -114.5 93.5t-97.5 111.5t-66.5 132t-24.5 153q0 78 7 128t22.5 83.5t37 58.5t47.5 51q37 39 96.5 64.5t147.5 25.5 q113 0 182.5 -32.5t106.5 -91t49 -136.5t12 -166h-276v58q0 45 -16.5 73.5t-55.5 28.5q-35 0 -53.5 -25.5t-14.5 -68.5q4 -76 41 -127t88.5 -93t109.5 -82t106.5 -92.5t80 -123t29.5 -172.5v-4l197 1046h354l238 -1294l243 1294h355l268 -1458h-313l-35 242h-203l-31 -242 h-567l-35 242h-203l-32 -242h-314l29 152q-47 -92 -135 -128t-225 -36q-86 0 -149.5 22.5t-105.5 72.5t-62.5 132t-20.5 199zM3975 557h137l-63 590h-4zM4811 557h139l-66 590h-4zM5196 1122v336h712v-287q12 72 38 128.5t69 94.5t107.5 58.5t154.5 20.5q121 0 191.5 -38 t107.5 -99.5t48.5 -140.5t11.5 -163v-104h-293v116q0 23 -1 51.5t-7.5 53.5t-18.5 42t-37 17q-29 0 -45 -15t-24.5 -65.5t-10.5 -142.5t-2 -246q0 -158 2 -253t11.5 -145t24.5 -66.5t44 -16.5q37 0 52.5 54.5t15.5 189.5v110h295v-90q0 -254 -90.5 -394t-288.5 -140 q-145 0 -223 53t-112 150.5t-38 236.5t-4 311q0 111 2 206t12 177h-196v-1122h-303v1122h-205zM6695 0v1456h301v-516h145v516h303v-1456h-303v600h-145v-600h-301zM7549 0v1456h336v-1456h-336z" />
<glyph unicode="&#x22;" horiz-adv-x="765" d="M72 768v688h247v-688h-247zM446 768v688h248v-688h-248z" />
<glyph unicode="#" horiz-adv-x="862" d="M41 549v176h113l36 254h-88v176h115l47 303h187l-48 -303h144l47 303h186l-47 -303h88v-176h-114l-37 -254h90v-176h-117l-45 -299h-186l45 299h-144l-45 -299h-186l45 299h-86zM340 725h143l37 254h-143z" />
<glyph unicode="$" horiz-adv-x="825" d="M20 414v39l283 -2v-66q0 -53 17.5 -90t58.5 -37t65.5 39t14.5 86q-6 39 -21.5 68.5t-36 52t-41 38t-36.5 27.5q-59 43 -113.5 93.5t-96.5 111t-68 131t-26 154.5q0 78 8.5 128t24 84t37 58.5t47.5 50.5q29 31 72 53.5t104 32.5v93h164v-97q80 -14 130 -52t78 -93t37 -125 t9 -148h-278v58q0 45 -15.5 73.5t-54.5 28.5q-35 0 -54.5 -25.5t-15.5 -68.5q4 -76 41 -127t88.5 -94t109.5 -84t107.5 -93.5t81 -123t29.5 -172.5q-4 -211 -75.5 -305.5t-217.5 -114.5v-180h-164v174q-74 6 -129 31.5t-92 77t-54.5 129t-17.5 186.5z" />
<glyph unicode="%" horiz-adv-x="1191" d="M20 1063q0 119 10.5 196.5t36 125t70.5 66.5t113 19t113 -19t70.5 -66.5t36.5 -125t11 -196.5q0 -117 -11 -194.5t-36.5 -124t-71 -66t-112.5 -19.5q-68 0 -113 19.5t-70.5 66t-36 124t-10.5 194.5zM207 931q0 -52 4 -81t12 -40t27 -11q18 0 27.5 11t14.5 40t5 81v134 v134t-5 82t-14.5 41t-27.5 11t-26.5 -11t-12.5 -41t-4 -82v-134v-134zM266 0l500 1458h154l-500 -1458h-154zM711 391q0 119 10 197t35.5 125t70.5 66.5t113 19.5t113 -19.5t70.5 -66.5t36.5 -125t11 -197q0 -117 -11 -194.5t-36.5 -123.5t-70.5 -65.5t-113 -19.5t-113 19.5 t-70.5 65.5t-35.5 123.5t-10 194.5zM897 259q0 -52 4 -80.5t12.5 -40t26.5 -11.5t27.5 11.5t14.5 40t5 80.5v134v134.5t-5 82t-14.5 41t-27.5 11.5t-26.5 -11.5t-12.5 -41t-4 -82v-134.5v-134z" />
<glyph unicode="&#x26;" horiz-adv-x="968" d="M23 387q0 145 56 248.5t148 169.5q-45 70 -76.5 148.5t-31.5 170.5q0 82 23.5 147.5t64.5 112t96 71t121 24.5q72 0 133 -18.5t106.5 -59.5t71 -105.5t25.5 -156.5q0 -70 -15.5 -123t-41 -97.5t-59.5 -83t-71 -77.5l105 -197q14 39 25.5 77t11.5 81h258q-6 -125 -44 -244 t-100 -188l158 -287h-317l-49 92q-57 -53 -135 -79.5t-144 -26.5q-98 0 -160.5 41t-98.5 101t-48 130t-12 129zM293 408q0 -53 26.5 -89t67.5 -36q35 0 65.5 14t47.5 31l-129 233q-8 -6 -21.5 -18.5t-26 -33t-21.5 -46t-9 -55.5zM365 1165q0 -53 24 -98l43 -82 q8 6 21.5 23.5t27 40t23.5 51t10 57.5q0 47 -21.5 64.5t-54.5 17.5q-74 0 -73 -74z" />
<glyph unicode="'" horiz-adv-x="391" d="M72 768v688h247v-688h-247z" />
<glyph unicode="(" horiz-adv-x="616" d="M41 705q0 252 64.5 477t183.5 436h286q-111 -223 -152.5 -445.5t-41.5 -467.5q0 -246 51 -479.5t143 -440.5h-286q-109 199 -178.5 431.5t-69.5 488.5z" />
<glyph unicode=")" horiz-adv-x="616" d="M41 -215q92 207 143.5 440.5t51.5 479.5t-42 468t-153 445h287q119 -211 183 -436.5t64 -476.5q0 -256 -69.5 -488.5t-177.5 -431.5h-287z" />
<glyph unicode="*" horiz-adv-x="874" d="M72 1104l57 176l217 -72v250h184v-248l215 70l58 -176l-213 -72l145 -201l-147 -110l-150 201l-145 -201l-152 106l146 205z" />
<glyph unicode="+" horiz-adv-x="952" d="M74 414v248h266v266h268v-266h269v-248h-269v-289h-268v289h-266z" />
<glyph unicode="," horiz-adv-x="468" d="M72 0v393h325v-325q0 -168 -79.5 -267.5t-245.5 -115.5v139q66 12 92 58t26 118h-118z" />
<glyph unicode="-" horiz-adv-x="591" d="M31 473v275h530v-275h-530z" />
<glyph unicode="." horiz-adv-x="468" d="M72 0v393h325v-393h-325z" />
<glyph unicode="/" horiz-adv-x="530" d="M-63 0l342 1470h268l-342 -1470h-268z" />
<glyph unicode="0" horiz-adv-x="829" d="M31 713q0 213 17.5 355t60.5 227t116.5 120t186.5 35t187.5 -35t119.5 -120t62.5 -227t17.5 -355t-17.5 -353.5t-62.5 -224.5t-120 -118.5t-187 -34.5q-113 0 -186.5 34.5t-116.5 118.5t-60.5 224.5t-17.5 353.5zM340 717q0 -147 1 -241.5t7 -148t21.5 -72.5t44.5 -19 q31 0 47 19t22 72.5t7.5 147.5t1.5 242q0 147 -1.5 241.5t-7.5 147.5t-22.5 73.5t-46.5 20.5q-29 0 -44.5 -20.5t-21.5 -73.5t-7 -147.5t-1 -241.5z" />
<glyph unicode="1" horiz-adv-x="595" d="M20 987v238q72 6 123.5 27.5t84 53t49 69.5t22.5 79h246v-1454h-328v985z" />
<glyph unicode="2" horiz-adv-x="813" d="M31 0q0 156 29.5 272.5t74.5 207.5t98.5 163t98.5 136.5t74.5 129t29.5 140.5q0 86 -11 123.5t-34 37.5t-33 -41t-10 -147v-64h-307v97q0 86 21.5 159.5t65.5 127t111.5 83t159.5 29.5q186 0 284.5 -95t98.5 -286q0 -104 -23.5 -186t-59 -148.5t-78.5 -123t-81 -108.5 t-67 -105.5t-37 -114.5h334v-287h-739z" />
<glyph unicode="3" horiz-adv-x="800" d="M31 434h288q2 -68 4.5 -110.5t8.5 -67.5t18 -35t33 -10q20 0 33.5 9t21.5 34t10.5 70t2.5 116q0 106 -24 144.5t-85 38.5h-68v235h45q35 0 57.5 6t36 26.5t18.5 59.5t5 105q0 94 -7 125.5t-46 31.5q-16 0 -26.5 -9t-14.5 -31.5t-6 -61.5t-4 -98h-285v98q0 160 90 252 t269 92q160 0 252 -90t92 -295q0 -139 -43 -210t-127 -95q92 -27 141 -101.5t49 -236.5q0 -233 -86 -338.5t-285 -105.5q-201 0 -284.5 107.5t-83.5 344.5z" />
<glyph unicode="4" horiz-adv-x="833" d="M20 268v289l357 864h362v-876h74v-277h-74v-268h-317v268h-402zM260 545h166v446z" />
<glyph unicode="5" horiz-adv-x="796" d="M31 387v78h299v-76q4 -102 13 -141t38 -39q18 0 28.5 12t16.5 42t7 81t1 129t-1 129t-7 82t-16.5 43t-28.5 12q-23 0 -37 -22.5t-16 -100.5h-287l27 805h651v-286h-393l-7 -209q25 31 64 51t104 20q82 0 136.5 -30.5t86 -94t44 -161t12.5 -232.5q0 -248 -85 -372.5 t-284 -124.5q-98 0 -167.5 19t-113.5 66.5t-64.5 125t-20.5 194.5z" />
<glyph unicode="6" horiz-adv-x="825" d="M31 717q0 199 18.5 339t63.5 228t118.5 129t184.5 41q72 0 137 -17.5t114.5 -61.5t79 -116.5t29.5 -183.5h-299q-4 82 -14 109.5t-43 27.5q-41 0 -49.5 -31.5t-8.5 -123.5v-199q16 47 55.5 75t108.5 28q127 0 198 -104.5t71 -338.5q0 -154 -30 -256t-80 -164.5 t-119.5 -89t-149.5 -26.5q-111 0 -184.5 43t-118.5 133t-63.5 229t-18.5 330zM362 446q0 -72 1.5 -117.5t7.5 -72.5t17 -37t32 -10q20 0 31.5 10t17.5 37t8 73t2 117q0 72 -2 118t-8 73t-17.5 37t-31.5 10t-31.5 -10t-17.5 -37t-7.5 -73t-1.5 -118z" />
<glyph unicode="7" horiz-adv-x="770" d="M20 1110v311h730v-284q-143 -268 -226.5 -553t-103.5 -584h-371q14 139 40 278.5t68 279.5t103.5 278.5t147.5 273.5h-388z" />
<glyph unicode="8" horiz-adv-x="827" d="M31 424q0 162 50 238.5t146 101.5q-90 27 -133 95.5t-43 203.5q0 195 98.5 291t264.5 96t264 -96.5t98 -290.5q0 -135 -44 -203.5t-134 -95.5q98 -25 148.5 -101.5t50.5 -238.5q0 -229 -89.5 -335.5t-293.5 -106.5q-205 0 -294 106.5t-89 335.5zM346 424q0 -63 2 -104 t9.5 -66t20.5 -34t34 -9q20 0 33.5 9t20.5 34t9 65.5t2 104.5q0 125 -12 170t-53 45t-53.5 -45t-12.5 -170zM362 1036q0 -102 10.5 -138t39.5 -36t39 36t10 138t-10.5 139t-38.5 37q-29 0 -39.5 -37t-10.5 -139z" />
<glyph unicode="9" horiz-adv-x="825" d="M31 915q0 154 29.5 256.5t79.5 165t120 89t150 26.5q111 0 184.5 -43t118.5 -133t63.5 -229.5t18.5 -329.5q0 -199 -18.5 -339t-63.5 -228.5t-119 -129t-184 -40.5q-72 0 -137.5 15t-114.5 56t-79 111.5t-30 181.5h299q2 -78 13.5 -100.5t44.5 -22.5q41 0 49 32t8 124 v188q-16 -47 -55 -74.5t-109 -27.5q-127 0 -197.5 109.5t-70.5 342.5zM346 987q0 -72 2 -118t8 -72.5t17.5 -36.5t32.5 -10q20 0 31.5 10t17.5 36.5t7 72.5t1 118t-1 118t-7 72.5t-17.5 37t-31.5 10.5t-32 -10.5t-18 -37t-8 -72.5t-2 -118z" />
<glyph unicode=":" horiz-adv-x="468" d="M72 0v393h325v-393h-325zM72 715v393h325v-393h-325z" />
<glyph unicode=";" d="M72 0v393h325v-325q0 -168 -79.5 -267.5t-245.5 -115.5v139q66 12 92 58t26 118h-118zM72 715v393h325v-393h-325z" />
<glyph unicode="&#x3c;" horiz-adv-x="825" d="M41 365v313l743 399v-274l-538 -283l538 -280v-275z" />
<glyph unicode="=" horiz-adv-x="804" d="M31 205v274h743v-274h-743zM31 616v275h743v-275h-743z" />
<glyph unicode="&#x3e;" horiz-adv-x="825" d="M41 -35v275l539 280l-539 283v274l743 -399v-313z" />
<glyph unicode="?" horiz-adv-x="776" d="M41 999v97q0 76 18.5 141.5t58.5 113.5t104.5 75.5t156.5 27.5q186 0 271 -86t85 -276q0 -88 -17.5 -148.5t-44 -105.5t-58 -83t-58.5 -83t-44 -102.5t-17 -143.5h-258q0 109 13 180.5t32.5 121.5t43 86t43 73t33 82t13.5 112q0 129 -45 129q-12 0 -21.5 -3t-16.5 -17 t-11.5 -44t-4.5 -83v-64h-276zM236 0v319h274v-319h-274z" />
<glyph unicode="@" horiz-adv-x="1433" d="M72 758q0 162 47 296t135 231t213 150.5t278 53.5q127 0 239 -51.5t196 -138.5t133 -202.5t49 -244.5q0 -117 -36 -211t-92 -160.5t-125 -102.5t-134 -36q-102 0 -135 86q-41 -35 -91.5 -55.5t-113.5 -20.5q-66 0 -118 27t-89 75t-56.5 111.5t-19.5 136.5q0 82 24.5 162 t74 142.5t121 100.5t167.5 38q49 0 90 -21.5t74 -54.5l4 31h172l-78 -492q-4 -20 -7 -44.5t-3 -41.5q0 -18 21 -18q27 0 58.5 25.5t58 71.5t44 109.5t17.5 141.5q0 94 -35 178t-95.5 147.5t-141 101.5t-173.5 38q-115 0 -207 -41t-157.5 -115t-101 -177t-35.5 -226 q0 -152 47 -258.5t118.5 -174t159.5 -98t168 -30.5q117 0 206 30.5t151 79.5l118 -123q-86 -72 -202.5 -115.5t-272.5 -43.5q-109 0 -226.5 39.5t-214.5 128t-160.5 227.5t-63.5 338zM524 702q0 -86 37 -133t86 -45q57 0 98 31t66 74t36 90t11 84q0 80 -30.5 125t-98.5 45 q-53 0 -92 -23.5t-63.5 -61.5t-37 -86t-12.5 -100z" />
<glyph unicode="A" horiz-adv-x="878" d="M-10 0l276 1458h355l268 -1458h-314l-34 244h-203l-33 -244h-315zM371 557h137l-66 592h-2z" />
<glyph unicode="B" horiz-adv-x="923" d="M51 0v1458h410q119 0 196.5 -25.5t122.5 -72.5t63.5 -113.5t18.5 -150.5q0 -80 -19.5 -139.5t-52 -99.5t-76.5 -61.5t-96 -27.5q127 -10 201 -98t74 -238q0 -96 -18.5 -176t-67.5 -137.5t-133 -88t-215 -30.5h-408zM379 250h49q49 0 79 40t30 150q0 113 -28 152t-87 39 h-43v-381zM379 887h39q51 0 77.5 29.5t26.5 125.5q0 55 -8 88t-22.5 50.5t-31 21.5t-34.5 4h-47v-319z" />
<glyph unicode="C" horiz-adv-x="813" d="M33 743q0 166 5 301.5t41 229.5t114.5 145t224.5 51q121 0 192.5 -36.5t110.5 -97t50 -138.5t11 -162v-106h-293v117q0 25 -1 53t-7 53t-18 42t-37 17q-29 0 -45 -15t-24.5 -65.5t-9.5 -142.5t-1 -246q0 -158 2 -253t10.5 -146t23.5 -66.5t44 -15.5q37 0 53.5 54.5 t16.5 189.5v110h292v-90q0 -254 -87 -396t-285 -142q-145 0 -224 53t-114 152.5t-40 238.5t-5 311z" />
<glyph unicode="D" horiz-adv-x="917" d="M51 0v1458h434q125 0 203 -32.5t122 -114.5t60.5 -223.5t16.5 -358.5t-16.5 -357.5t-60.5 -223t-122 -115.5t-203 -33h-434zM379 250h51q35 0 54.5 19.5t29.5 71.5t13 144.5t3 239.5q0 145 -3 238.5t-13 147.5t-29.5 74.5t-54.5 20.5h-51v-956z" />
<glyph unicode="E" horiz-adv-x="753" d="M51 0v1458h662v-303h-334v-254h309v-299h-309v-291h344v-311h-672z" />
<glyph unicode="F" horiz-adv-x="733" d="M51 0v1458h662v-307h-332v-248h307v-301h-307v-602h-330z" />
<glyph unicode="G" horiz-adv-x="851" d="M33 741q0 168 8 302.5t48 229.5t121 146t226 51q121 0 193.5 -36.5t110.5 -97t49.5 -138.5t11.5 -162v-86h-303v62q0 37 -1 73.5t-7.5 64.5t-16.5 45t-29 17q-23 0 -37 -15t-21 -64.5t-9 -142.5t-2 -247q0 -158 3 -254t10 -148t21.5 -68.5t36.5 -16.5q18 0 32 10t23 36 t13 71t4 116h-76v291h369v-780h-195v104q-18 -37 -44.5 -60.5t-58.5 -35.5t-66.5 -16t-65.5 -4q-133 0 -204 54t-103.5 152.5t-36.5 237.5t-4 309z" />
<glyph unicode="H" horiz-adv-x="851" d="M51 0v1458h301v-518h146v518h303v-1458h-303v602h-146v-602h-301z" />
<glyph unicode="I" horiz-adv-x="430" d="M51 0v1458h338v-1458h-338z" />
<glyph unicode="J" horiz-adv-x="837" d="M31 442v39h286v-133q0 -92 70 -92q72 0 72 90v1112h327v-1016q0 -246 -92 -350t-297 -104q-102 0 -171.5 24.5t-112.5 79.5t-62.5 141t-19.5 209z" />
<glyph unicode="K" horiz-adv-x="894" d="M51 0v1458h318v-465l155 465h355l-277 -614l303 -844h-360l-133 492l-43 -93v-399h-318z" />
<glyph unicode="L" horiz-adv-x="727" d="M51 0v1458h338v-1147h328v-311h-666z" />
<glyph unicode="M" horiz-adv-x="1189" d="M51 0v1458h447l100 -905h2l111 905h426l2 -1458h-291v983l-111 -983h-276l-111 983v-983h-299z" />
<glyph unicode="N" horiz-adv-x="929" d="M51 0v1458h309l220 -805v805h299v-1458h-318l-211 766v-766h-299z" />
<glyph unicode="O" horiz-adv-x="884" d="M31 725q0 217 16 360.5t61.5 229.5t125 120.5t206.5 34.5t208 -34.5t127 -120.5t62.5 -229.5t16.5 -360.5t-16.5 -359.5t-62.5 -226.5t-127 -117.5t-208 -33.5t-206.5 33.5t-125 117.5t-61.5 226.5t-16 359.5zM367 488.5q0 -91.5 6 -143.5t21.5 -70.5t45.5 -18.5 q31 0 46.5 18.5t22.5 70.5t7 143.5v238.5v238.5t-7 145.5t-22.5 71.5t-46.5 19.5t-46 -19.5t-21 -71.5t-6 -145.5v-238.5v-238.5z" />
<glyph unicode="P" horiz-adv-x="866" d="M51 0v1458h406q209 0 299 -111.5t90 -347.5q0 -123 -22.5 -211t-69.5 -144t-124 -81.5t-184 -25.5h-67v-537h-328zM379 782h47q51 0 70.5 52.5t19.5 156.5q0 113 -19.5 164t-70.5 51h-47v-424z" />
<glyph unicode="Q" horiz-adv-x="925" d="M31 725q0 217 19.5 360.5t68.5 229.5t132 120.5t210 34.5t211 -34.5t133 -120.5t69.5 -229.5t20.5 -360.5q0 -221 -20.5 -361.5t-71.5 -226.5l112 -168l-219 -153l-118 180q-27 -4 -56.5 -6t-60.5 -2q-127 0 -210 33.5t-132 117.5t-68.5 226.5t-19.5 359.5zM389 488.5 q0 -91.5 6 -143.5t21.5 -70.5t46.5 -18.5t46 18.5t22.5 70.5t7.5 143.5v238.5v238.5t-7.5 146.5t-22.5 73.5t-46 20.5t-46.5 -20.5t-21.5 -73.5t-6 -146.5v-238.5v-238.5z" />
<glyph unicode="R" horiz-adv-x="880" d="M51 0v1458h404q104 0 178 -21.5t121 -70.5t68.5 -130t21.5 -200q0 -68 -8.5 -121t-32 -92t-64.5 -64.5t-106 -35.5q68 -14 109.5 -43t65 -71t32 -97t8.5 -123v-389h-350v395q0 109 -22.5 150t-86.5 41h-10v-586h-328zM379 842h45q51 0 70.5 39t19.5 141 q0 109 -19.5 146.5t-70.5 37.5h-45v-364z" />
<glyph unicode="S" horiz-adv-x="782" d="M20 414v39l283 -2v-66q0 -53 17.5 -90t58.5 -37t65 39q17 28 18 59q0 13 -3 27q-6 39 -21.5 68.5t-36 52t-41 38t-36.5 27.5q-59 43 -113.5 93.5t-96.5 111t-68 131t-26 154.5q0 78 8.5 128t24 84t37 58.5t47.5 50.5q37 39 95.5 64.5t146.5 25.5q113 0 182.5 -32.5 t107.5 -91t50 -136t12 -166.5h-278v58q0 45 -15.5 73.5t-54.5 28.5q-35 0 -55 -26q-16 -21 -16 -54q0 -7 1 -14q4 -76 41 -127t88.5 -94t109.5 -84t108 -93q48 -54 80 -124q30 -66 30 -160v-12q-2 -125 -27.5 -207t-76 -131t-126 -69.5t-180.5 -20.5q-86 0 -149.5 22.5 t-106.5 72.5t-63.5 132t-20.5 199z" />
<glyph unicode="T" horiz-adv-x="722" d="M0 1122v336h715v-336h-207v-1122h-301v1122h-207z" />
<glyph unicode="U" horiz-adv-x="901" d="M51 442v1016h328v-1085q0 -74 18.5 -97.5t55.5 -23.5t53 23.5t16 97.5v1085h328v-1016q0 -246 -96.5 -350t-300.5 -104q-205 0 -303.5 104.5t-98.5 349.5z" />
<glyph unicode="V" horiz-adv-x="880" d="M-10 1458h350l96 -1005l115 1005h340l-273 -1458h-362z" />
<glyph unicode="W" horiz-adv-x="1265" d="M-10 1458h348l55 -837l148 837h215l129 -837l41 837h350l-211 -1458h-315l-119 836l-117 -836h-315z" />
<glyph unicode="X" horiz-adv-x="862" d="M0 0l248 750l-238 708h318l98 -409l96 409h318l-232 -708l254 -750h-317l-115 451l-113 -451h-317z" />
<glyph unicode="Y" horiz-adv-x="808" d="M-10 1458h319l92 -512l109 512h309l-256 -821v-637h-327v637z" />
<glyph unicode="Z" horiz-adv-x="753" d="M20 0v274l336 877h-325v307h690v-270l-340 -877h342v-311h-703z" />
<glyph unicode="[" horiz-adv-x="575" d="M41 -236v1854h494v-272h-160v-1309h160v-273h-494z" />
<glyph unicode="\" horiz-adv-x="530" d="M-63 1470h268l342 -1470h-268z" />
<glyph unicode="]" horiz-adv-x="575" d="M41 37h160v1309h-160v272h494v-1854h-494v273z" />
<glyph unicode="^" horiz-adv-x="952" d="M68 719l294 702h230l295 -702h-230l-180 418l-180 -418h-229z" />
<glyph unicode="_" horiz-adv-x="792" d="M0 -129h793v-170h-793v170z" />
<glyph unicode="`" horiz-adv-x="417" d="M0 1509h322l96 -299h-228z" />
<glyph unicode="a" horiz-adv-x="878" d="M-10 0l276 1458h355l268 -1458h-314l-34 244h-203l-33 -244h-315zM371 557h137l-66 592h-2z" />
<glyph unicode="b" horiz-adv-x="923" d="M51 0v1458h410q119 0 196.5 -25.5t122.5 -72.5t63.5 -113.5t18.5 -150.5q0 -80 -19.5 -139.5t-52 -99.5t-76.5 -61.5t-96 -27.5q127 -10 201 -98t74 -238q0 -96 -18.5 -176t-67.5 -137.5t-133 -88t-215 -30.5h-408zM379 250h49q49 0 79 40t30 150q0 113 -28 152t-87 39 h-43v-381zM379 887h39q51 0 77.5 29.5t26.5 125.5q0 55 -8 88t-22.5 50.5t-31 21.5t-34.5 4h-47v-319z" />
<glyph unicode="c" horiz-adv-x="813" d="M33 743q0 166 5 301.5t41 229.5t114.5 145t224.5 51q121 0 192.5 -36.5t110.5 -97t50 -138.5t11 -162v-106h-293v117q0 25 -1 53t-7 53t-18 42t-37 17q-29 0 -45 -15t-24.5 -65.5t-9.5 -142.5t-1 -246q0 -158 2 -253t10.5 -146t23.5 -66.5t44 -15.5q37 0 53.5 54.5 t16.5 189.5v110h292v-90q0 -254 -87 -396t-285 -142q-145 0 -224 53t-114 152.5t-40 238.5t-5 311z" />
<glyph unicode="d" horiz-adv-x="917" d="M51 0v1458h434q125 0 203 -32.5t122 -114.5t60.5 -223.5t16.5 -358.5t-16.5 -357.5t-60.5 -223t-122 -115.5t-203 -33h-434zM379 250h51q35 0 54.5 19.5t29.5 71.5t13 144.5t3 239.5q0 145 -3 238.5t-13 147.5t-29.5 74.5t-54.5 20.5h-51v-956z" />
<glyph unicode="e" horiz-adv-x="753" d="M51 0v1458h662v-303h-334v-254h309v-299h-309v-291h344v-311h-672z" />
<glyph unicode="f" horiz-adv-x="733" d="M51 0v1458h662v-307h-332v-248h307v-301h-307v-602h-330z" />
<glyph unicode="g" horiz-adv-x="851" d="M33 741q0 168 8 302.5t48 229.5t121 146t226 51q121 0 193.5 -36.5t110.5 -97t49.5 -138.5t11.5 -162v-86h-303v62q0 37 -1 73.5t-7.5 64.5t-16.5 45t-29 17q-23 0 -37 -15t-21 -64.5t-9 -142.5t-2 -247q0 -158 3 -254t10 -148t21.5 -68.5t36.5 -16.5q18 0 32 10t23 36 t13 71t4 116h-76v291h369v-780h-195v104q-18 -37 -44.5 -60.5t-58.5 -35.5t-66.5 -16t-65.5 -4q-133 0 -204 54t-103.5 152.5t-36.5 237.5t-4 309z" />
<glyph unicode="h" horiz-adv-x="851" d="M51 0v1458h301v-518h146v518h303v-1458h-303v602h-146v-602h-301z" />
<glyph unicode="i" horiz-adv-x="430" d="M51 0v1458h338v-1458h-338z" />
<glyph unicode="j" horiz-adv-x="837" d="M31 442v39h286v-133q0 -92 70 -92q72 0 72 90v1112h327v-1016q0 -246 -92 -350t-297 -104q-102 0 -171.5 24.5t-112.5 79.5t-62.5 141t-19.5 209z" />
<glyph unicode="k" horiz-adv-x="894" d="M51 0v1458h318v-465l155 465h355l-277 -614l303 -844h-360l-133 492l-43 -93v-399h-318z" />
<glyph unicode="l" horiz-adv-x="727" d="M51 0v1458h338v-1147h328v-311h-666z" />
<glyph unicode="m" horiz-adv-x="1189" d="M51 0v1458h447l100 -905h2l111 905h426l2 -1458h-291v983l-111 -983h-276l-111 983v-983h-299z" />
<glyph unicode="n" horiz-adv-x="929" d="M51 0v1458h309l220 -805v805h299v-1458h-318l-211 766v-766h-299z" />
<glyph unicode="o" horiz-adv-x="884" d="M31 725q0 217 16 360.5t61.5 229.5t125 120.5t206.5 34.5t208 -34.5t127 -120.5t62.5 -229.5t16.5 -360.5t-16.5 -359.5t-62.5 -226.5t-127 -117.5t-208 -33.5t-206.5 33.5t-125 117.5t-61.5 226.5t-16 359.5zM367 488.5q0 -91.5 6 -143.5t21.5 -70.5t45.5 -18.5 q31 0 46.5 18.5t22.5 70.5t7 143.5v238.5v238.5t-7 145.5t-22.5 71.5t-46.5 19.5t-46 -19.5t-21 -71.5t-6 -145.5v-238.5v-238.5z" />
<glyph unicode="p" horiz-adv-x="866" d="M51 0v1458h406q209 0 299 -111.5t90 -347.5q0 -123 -22.5 -211t-69.5 -144t-124 -81.5t-184 -25.5h-67v-537h-328zM379 782h47q51 0 70.5 52.5t19.5 156.5q0 113 -19.5 164t-70.5 51h-47v-424z" />
<glyph unicode="q" horiz-adv-x="925" d="M31 725q0 217 19.5 360.5t68.5 229.5t132 120.5t210 34.5t211 -34.5t133 -120.5t69.5 -229.5t20.5 -360.5q0 -221 -20.5 -361.5t-71.5 -226.5l112 -168l-219 -153l-118 180q-27 -4 -56.5 -6t-60.5 -2q-127 0 -210 33.5t-132 117.5t-68.5 226.5t-19.5 359.5zM389 488.5 q0 -91.5 6 -143.5t21.5 -70.5t46.5 -18.5t46 18.5t22.5 70.5t7.5 143.5v238.5v238.5t-7.5 146.5t-22.5 73.5t-46 20.5t-46.5 -20.5t-21.5 -73.5t-6 -146.5v-238.5v-238.5z" />
<glyph unicode="r" horiz-adv-x="880" d="M51 0v1458h404q104 0 178 -21.5t121 -70.5t68.5 -130t21.5 -200q0 -68 -8.5 -121t-32 -92t-64.5 -64.5t-106 -35.5q68 -14 109.5 -43t65 -71t32 -97t8.5 -123v-389h-350v395q0 109 -22.5 150t-86.5 41h-10v-586h-328zM379 842h45q51 0 70.5 39t19.5 141 q0 109 -19.5 146.5t-70.5 37.5h-45v-364z" />
<glyph unicode="s" horiz-adv-x="782" d="M20 414v39l283 -2v-66q0 -53 17.5 -90t58.5 -37t65 39q17 28 18 59q0 13 -3 27q-6 39 -21.5 68.5t-36 52t-41 38t-36.5 27.5q-59 43 -113.5 93.5t-96.5 111t-68 131t-26 154.5q0 78 8.5 128t24 84t37 58.5t47.5 50.5q37 39 95.5 64.5t146.5 25.5q113 0 182.5 -32.5 t107.5 -91t50 -136t12 -166.5h-278v58q0 45 -15.5 73.5t-54.5 28.5q-35 0 -55 -26q-16 -21 -16 -54q0 -7 1 -14q4 -76 41 -127t88.5 -94t109.5 -84t108 -93q48 -54 80 -124q30 -66 30 -160v-12q-2 -125 -27.5 -207t-76 -131t-126 -69.5t-180.5 -20.5q-86 0 -149.5 22.5 t-106.5 72.5t-63.5 132t-20.5 199z" />
<glyph unicode="t" horiz-adv-x="722" d="M0 1122v336h715v-336h-207v-1122h-301v1122h-207z" />
<glyph unicode="u" horiz-adv-x="901" d="M51 442v1016h328v-1085q0 -74 18.5 -97.5t55.5 -23.5t53 23.5t16 97.5v1085h328v-1016q0 -246 -96.5 -350t-300.5 -104q-205 0 -303.5 104.5t-98.5 349.5z" />
<glyph unicode="v" horiz-adv-x="880" d="M-10 1458h350l96 -1005l115 1005h340l-273 -1458h-362z" />
<glyph unicode="w" horiz-adv-x="1265" d="M-10 1458h348l55 -837l148 837h215l129 -837l41 837h350l-211 -1458h-315l-119 836l-117 -836h-315z" />
<glyph unicode="x" horiz-adv-x="862" d="M0 0l248 750l-238 708h318l98 -409l96 409h318l-232 -708l254 -750h-317l-115 451l-113 -451h-317z" />
<glyph unicode="y" horiz-adv-x="808" d="M-10 1458h319l92 -512l109 512h309l-256 -821v-637h-327v637z" />
<glyph unicode="z" horiz-adv-x="753" d="M20 0v274l336 877h-325v307h690v-270l-340 -877h342v-311h-703z" />
<glyph unicode="{" horiz-adv-x="651" d="M31 563v271q55 0 84.5 34.5t29.5 83.5v381q0 59 18.5 111.5t55.5 90.5t93.5 60.5t133.5 22.5h175v-258h-74q-45 0 -63.5 -32t-18.5 -79v-356q0 -86 -58.5 -140.5t-146.5 -54.5q88 0 146.5 -54t58.5 -140v-357q0 -47 18.5 -78.5t63.5 -31.5h74v-258h-175q-78 0 -134 22.5 t-93 60.5t-55.5 90t-18.5 111v381q0 49 -29.5 84t-84.5 35z" />
<glyph unicode="|" horiz-adv-x="376" d="M72 -215v1671h233v-1671h-233z" />
<glyph unicode="}" horiz-adv-x="651" d="M31 37h73q45 0 63.5 31.5t18.5 78.5v357q0 86 58.5 140t146.5 54q-88 0 -146.5 54.5t-58.5 140.5v356q0 47 -18 79t-64 32h-73v258h174q76 0 133 -22.5t94 -60.5t55.5 -90t18.5 -112v-381q0 -49 29.5 -83.5t85.5 -34.5v-271q-55 0 -85 -34.5t-30 -84.5v-381 q0 -59 -18.5 -111t-55.5 -90t-94 -60.5t-133 -22.5h-174v258z" />
<glyph unicode="~" horiz-adv-x="952" d="M152 315v328q80 51 176 51q59 0 106 -13t89 -28.5t81 -29t82 -13.5q51 0 94 16.5t78 61.5v-328q-41 -25 -85 -38t-97 -13q-59 0 -104.5 13.5t-85.5 29t-77.5 28.5t-80.5 13q-72 0 -109 -20.5t-67 -57.5z" />
<glyph unicode="&#xa1;" horiz-adv-x="497" d="M88 2v494l41 534h246l41 -534v-494h-328zM117 1139v319h274v-319h-274z" />
<glyph unicode="&#xa2;" horiz-adv-x="706" d="M53 772q0 119 3 217t25.5 170t70 117t137.5 57v113h133v-111q74 -10 119 -41.5t69.5 -78t32.5 -102.5t8 -116v-94h-248v101q0 16 -1 36.5t-4 38t-10 28.5t-21 11q-18 0 -27.5 -11t-15 -48t-6.5 -105.5t-1 -181.5q0 -117 1 -187.5t6.5 -107.5t15.5 -49t27 -12q23 0 32 38 t9 136v96h247v-80q0 -180 -55 -287.5t-178 -130.5v-188h-133v188q-90 12 -138.5 58.5t-70 121t-24.5 177t-3 227.5z" />
<glyph unicode="&#xa3;" horiz-adv-x="854" d="M31 197q94 72 137 157.5t43 188.5v17t-2 18h-178v237h82q-29 55 -48.5 117.5t-19.5 140.5q0 190 98.5 285.5t284.5 95.5q92 0 159.5 -29.5t111.5 -83t65.5 -127t21.5 -159.5v-23h-307v64q0 72 -10 93t-33 21t-34 -24.5t-11 -95.5q0 -70 22.5 -136.5t53.5 -138.5h225v-237 h-155q2 -10 2 -17.5v-17.5q0 -86 -32 -156t-97 -104q29 8 52 3t44.5 -15.5t43 -19.5t50.5 -9q37 0 72 12t73 47l78 -246q-37 -39 -85 -56t-134 -17q-49 0 -93 9t-84 20.5t-77 20.5t-69 9q-45 0 -93.5 -13.5t-89.5 -47.5z" />
<glyph unicode="&#xa5;" horiz-adv-x="808" d="M-10 1458h319l92 -512l109 512h309l-190 -606h149v-225h-215v-115h215v-225h-215v-287h-327v287h-203v225h203v115h-203v225h137z" />
<glyph unicode="&#xa6;" horiz-adv-x="417" d="M72 313h274v-825h-274v825zM72 672v825h274v-825h-274z" />
<glyph unicode="&#xa7;" horiz-adv-x="843" d="M41 600q0 55 14.5 103.5t34 86t42 66.5t38.5 47q-41 45 -67.5 101.5t-26.5 134.5q0 166 94 259t262 93q113 0 179.5 -28.5t99 -78t42 -115t9.5 -139.5h-248v21q0 45 -19.5 73.5t-58.5 28.5q-35 0 -58.5 -22.5t-23.5 -65.5q0 -47 33 -74.5t83 -49t108.5 -47t108.5 -70.5 t83 -117t33 -186q0 -55 -14.5 -102.5t-35 -86.5t-43 -68.5t-38.5 -48.5q47 -45 75.5 -104t28.5 -139q0 -166 -96 -263.5t-264 -97.5q-115 0 -182.5 31t-102.5 83t-46 120.5t-11 142.5h260v-20q0 -119 78 -119q35 0 58.5 22.5t23.5 81.5q0 47 -34 75t-84 50.5t-108.5 48 t-108.5 70.5t-84 116.5t-34 186.5zM266 641q0 -33 20.5 -59.5t54.5 -51t78 -47t91 -49.5q31 29 51.5 63t20.5 81q0 33 -20.5 59.5t-55.5 50t-79 46t-91 48.5q-31 -29 -50.5 -62.5t-19.5 -78.5z" />
<glyph unicode="&#xa8;" horiz-adv-x="579" d="M0 1204v285h244v-285h-244zM336 1204v285h244v-285h-244z" />
<glyph unicode="&#xa9;" horiz-adv-x="1574" d="M41 729q0 154 58.5 290t159.5 237.5t237.5 161t289.5 59.5q154 0 290 -59.5t237.5 -161t161 -237.5t59.5 -290t-59.5 -290t-161 -237.5t-237.5 -159.5t-290 -58t-290 58t-237 159.5t-159.5 237.5t-58.5 290zM164 729q0 -129 49 -242.5t133 -197.5t197.5 -133.5 t242.5 -49.5t243 49.5t199 133.5t134 197.5t49 242.5t-49 242.5t-134 198.5t-199 134.5t-243 49.5t-242.5 -49.5t-197.5 -134.5t-133 -198.5t-49 -242.5zM371 735q0 98 29.5 182t86 145.5t137.5 96.5t183 35q70 0 133.5 -20.5t112.5 -60.5t81.5 -99.5t43.5 -136.5h-160 q-16 72 -73.5 112.5t-137.5 40.5q-117 0 -178.5 -82t-61.5 -209q0 -59 17.5 -113.5t49.5 -94t77 -63.5t100 -24q86 0 141.5 43t65.5 117h166q-12 -78 -46 -137t-84 -101t-112.5 -63.5t-130.5 -21.5q-100 0 -181 34.5t-138.5 96t-89 144.5t-31.5 179z" />
<glyph unicode="&#xaa;" d="M74 702v406h305v-406h-305z" />
<glyph unicode="&#xab;" horiz-adv-x="827" d="M72 446v232l342 346v-283l-187 -180l187 -178v-283zM414 446v232l342 346v-283l-187 -180l187 -178v-283z" />
<glyph unicode="&#xac;" d="M74 702v406h305v-406h-305z" />
<glyph unicode="&#xad;" horiz-adv-x="591" d="M31 473v275h530v-275h-530z" />
<glyph unicode="&#xae;" horiz-adv-x="894" d="M72 1163q0 78 29.5 146.5t79.5 120t119 81t146 29.5q78 0 147 -29.5t120 -81t80.5 -120t29.5 -146.5t-29.5 -146.5t-80.5 -118.5t-120 -80t-147 -30t-146.5 30t-118.5 80t-79.5 118.5t-29.5 146.5zM133 1163q0 -66 24.5 -122t67.5 -99t99.5 -67.5t121.5 -24.5 q66 0 123.5 24.5t100.5 67.5t67.5 99.5t24.5 121.5q0 66 -24.5 123t-67.5 100.5t-100.5 68t-123.5 24.5t-122 -24.5t-99 -68t-67.5 -100.5t-24.5 -123zM297 954v432h164q82 0 125 -28.5t43 -97.5q0 -59 -33 -86t-80 -31l115 -189h-88l-107 185h-53v-185h-86zM383 1206h76 q37 0 61.5 9.5t24.5 50.5q0 35 -31 44t-59 9h-72v-113z" />
<glyph unicode="&#xaf;" horiz-adv-x="518" d="M0 1255v201h518v-201h-518z" />
<glyph unicode="&#xb0;" horiz-adv-x="688" d="M31 1126q0 70 24.5 130.5t66.5 105.5t99.5 70.5t122.5 25.5q66 0 123 -25.5t99 -70.5t66.5 -105.5t24.5 -130.5q0 -68 -24.5 -128t-66.5 -105t-99 -70.5t-123 -25.5t-123 25.5t-99 70.5t-66.5 105t-24.5 128zM205 1126q0 -66 40 -110.5t99 -44.5t99 45t40 110 q0 66 -40 112t-99 46t-99 -46t-40 -112z" />
<glyph unicode="&#xb1;" horiz-adv-x="952" d="M74 0v248h803v-248h-803zM74 506v248h266v266h268v-266h269v-248h-269v-227h-268v227h-266z" />
<glyph unicode="&#xb2;" horiz-adv-x="544" d="M41 573q0 86 14.5 152t37 118t49 92t53.5 77q35 47 60.5 91t25.5 97q0 86 -17 86q-10 0 -13 -22.5t-3 -79.5v-47h-201v67q0 106 53.5 175t167.5 69q113 0 174.5 -58.5t61.5 -175.5q0 -53 -11.5 -97t-30 -82t-40 -69.5t-41.5 -58.5q-27 -35 -49.5 -69.5t-28.5 -75.5h195 v-189h-457z" />
<glyph unicode="&#xb3;" horiz-adv-x="538" d="M41 846h190q2 -78 6.5 -103.5t20.5 -25.5q20 0 25.5 22.5t5.5 100.5q0 59 -12.5 77.5t-43.5 18.5h-49v160h37q35 0 47.5 17t12.5 89q0 49 -3.5 65.5t-19.5 16.5q-12 0 -15 -23.5t-5 -95.5h-187v70q0 98 55.5 154.5t165.5 56.5q98 0 155.5 -54.5t57.5 -181.5 q0 -74 -21.5 -116.5t-60.5 -61.5q45 -20 70 -65t25 -136q0 -143 -53.5 -206.5t-176.5 -63.5q-125 0 -176 67.5t-51 217.5z" />
<glyph unicode="&#xb4;" horiz-adv-x="417" d="M0 1210l96 299h322l-191 -299h-227z" />
<glyph unicode="&#xb6;" horiz-adv-x="1064" d="M72 1067q0 111 29.5 186.5t78.5 120.5t110.5 64.5t125.5 19.5h577v-1743h-276v1493h-99v-1493h-276v961q-57 0 -106.5 31.5t-86 84t-57 124t-20.5 151.5z" />
<glyph unicode="&#xb7;" horiz-adv-x="468" d="M72 715v393h325v-393h-325z" />
<glyph unicode="&#xb8;" horiz-adv-x="389" d="M0 -430l35 115q18 -12 49 -22.5t59 -10.5q45 0 62.5 19.5t17.5 47.5q0 29 -15 48.5t-52 19.5q-23 0 -43 -14l-41 45l80 194h98l-53 -131q16 8 53 8q68 0 103.5 -43t35.5 -122q0 -98 -61.5 -146.5t-145.5 -48.5q-55 0 -104 12.5t-78 28.5z" />
<glyph unicode="&#xb9;" horiz-adv-x="411" d="M41 1155v162q86 6 122 46t44 87h164v-875h-213v580h-117z" />
<glyph unicode="&#xba;" d="M74 702v406h305v-406h-305z" />
<glyph unicode="&#xbb;" horiz-adv-x="827" d="M72 100v283l186 178l-186 180v283l342 -346v-232zM414 100v283l186 178l-186 180v283l342 -346v-232z" />
<glyph unicode="&#xbc;" horiz-adv-x="1097" d="M41 1155v162q86 6 122 46t44 87h164v-875h-213v580h-117zM233 0l486 1421h153l-485 -1421h-154zM571 158v184l211 514h234v-514h41v-184h-41v-158h-207v158h-238zM737 342h74v190z" />
<glyph unicode="&#xbd;" horiz-adv-x="1169" d="M41 1155v162q86 6 122 46t44 87h164v-875h-213v580h-117zM233 0l486 1421h153l-485 -1421h-154zM666 0q0 86 14 151.5t36.5 118t49.5 92t53 76.5q35 47 60.5 91t25.5 98q0 86 -16 86q-10 0 -13.5 -22.5t-3.5 -80.5v-47h-200v68q0 106 53 174.5t168 68.5q113 0 174 -58 t61 -175q0 -53 -11 -97t-29.5 -82t-40 -70t-41.5 -58q-27 -35 -49.5 -70t-28.5 -76h194v-188h-456z" />
<glyph unicode="&#xbe;" horiz-adv-x="1153" d="M41 846h190q2 -78 6.5 -103.5t20.5 -25.5q20 0 25.5 22.5t5.5 100.5q0 59 -12.5 77.5t-43.5 18.5h-49v160h37q35 0 47.5 17t12.5 89q0 49 -3.5 65.5t-19.5 16.5q-12 0 -15 -23.5t-5 -95.5h-187v70q0 98 55.5 154.5t165.5 56.5q98 0 155.5 -54.5t57.5 -181.5 q0 -74 -21.5 -116.5t-60.5 -61.5q45 -20 70 -65t25 -136q0 -143 -53.5 -206.5t-176.5 -63.5q-125 0 -176 67.5t-51 217.5zM289 0l485 1421h154l-486 -1421h-153zM627 158v184l211 514h233v-514h41v-184h-41v-158h-207v158h-237zM793 342h73v190z" />
<glyph unicode="&#xbf;" horiz-adv-x="776" d="M39 367q0 88 17.5 148t44 105.5t58 83t58.5 82.5t44.5 102.5t17.5 143.5h258q0 -109 -13.5 -180.5t-33 -121.5t-43 -86t-43 -72.5t-33 -82t-13.5 -112.5q0 -129 45 -129q12 0 21.5 3t17 17.5t11.5 44t4 82.5v64h276v-97q0 -76 -18.5 -141t-58.5 -113.5t-104.5 -76 t-156.5 -27.5q-186 0 -271 86t-85 277zM264 1139v319h275v-319h-275z" />
<glyph unicode="&#xc0;" horiz-adv-x="878" d="M-10 0l276 1458h355l268 -1458h-314l-34 244h-203l-33 -244h-315zM176 1804h322l96 -299h-228zM371 557h137l-66 592h-2z" />
<glyph unicode="&#xc1;" horiz-adv-x="878" d="M-10 0l276 1458h355l268 -1458h-314l-34 244h-203l-33 -244h-315zM301 1505l96 299h322l-191 -299h-227zM371 557h137l-66 592h-2z" />
<glyph unicode="&#xc2;" horiz-adv-x="878" d="M-10 0l276 1458h355l268 -1458h-314l-34 244h-203l-33 -244h-315zM137 1505l123 299h356l123 -299h-240l-61 164l-61 -164h-240zM371 557h137l-66 592h-2z" />
<glyph unicode="&#xc3;" horiz-adv-x="878" d="M-10 0l276 1458h355l268 -1458h-314l-34 244h-203l-33 -244h-315zM115 1512q0 57 12.5 108.5t37 89t60 59t80.5 21.5q37 0 67 -9t57.5 -21.5t53 -21.5t52.5 -9q23 0 39 15.5t16 41.5h172q0 -59 -13 -109t-38 -88t-61.5 -59.5t-83.5 -21.5q-37 0 -66 9t-55.5 21.5 t-51 21.5t-51.5 9q-23 0 -39 -15.5t-16 -41.5h-172zM371 557h137l-66 592h-2z" />
<glyph unicode="&#xc4;" horiz-adv-x="878" d="M-10 0l276 1458h355l268 -1458h-314l-34 244h-203l-33 -244h-315zM150 1505v285h244v-285h-244zM371 557h137l-66 592h-2zM486 1505v285h244v-285h-244z" />
<glyph unicode="&#xc5;" horiz-adv-x="878" d="M-10 0l276 1458h355l268 -1458h-314l-34 244h-203l-33 -244h-315zM221 1641q0 76 60.5 129t156.5 53t157.5 -53.5t61.5 -128.5q0 -78 -61.5 -130.5t-157.5 -52.5t-156.5 52.5t-60.5 130.5zM354 1641q0 -31 22.5 -53.5t61.5 -22.5t61.5 22.5t22.5 53.5t-22.5 52t-61.5 21 t-61.5 -21t-22.5 -52zM371 557h137l-66 592h-2z" />
<glyph unicode="&#xc6;" horiz-adv-x="1249" d="M-10 0l436 1458h782v-303h-334v-254h310v-299h-310v-291h345v-311h-646v244h-211l-59 -244h-313zM430 557h137l2 602h-2z" />
<glyph unicode="&#xc7;" horiz-adv-x="813" d="M33 743q0 166 5 301.5t41 229.5t114.5 145t224.5 51q121 0 192.5 -36.5t110.5 -97t50 -138.5t11 -162v-106h-293v117q0 25 -1 53t-7 53t-18 42t-37 17q-29 0 -45 -15t-24.5 -65.5t-9.5 -142.5t-1 -246q0 -158 2 -253t10.5 -146t23.5 -66.5t44 -15.5q37 0 53.5 54.5 t16.5 189.5v110h292v-90q0 -254 -87 -396t-285 -142q-145 0 -224 53t-114 152.5t-40 238.5t-5 311zM211 -430l35 115q18 -12 49 -22.5t59 -10.5q45 0 62.5 19.5t17.5 47.5q0 29 -15 48.5t-52 19.5q-23 0 -43 -14l-41 45l80 194h98l-53 -131q16 8 53 8q68 0 103.5 -43 t35.5 -122q0 -98 -61.5 -146.5t-145.5 -48.5q-55 0 -104 12.5t-78 28.5z" />
<glyph unicode="&#xc8;" horiz-adv-x="753" d="M51 0v1458h662v-303h-334v-254h309v-299h-309v-291h344v-311h-672zM125 1806h322l96 -299h-228z" />
<glyph unicode="&#xc9;" horiz-adv-x="753" d="M51 0v1458h662v-303h-334v-254h309v-299h-309v-291h344v-311h-672zM231 1505l96 299h322l-191 -299h-227z" />
<glyph unicode="&#xca;" horiz-adv-x="753" d="M51 0v1458h662v-303h-334v-254h309v-299h-309v-291h344v-311h-672zM76 1507l123 299h356l123 -299h-240l-61 164l-61 -164h-240z" />
<glyph unicode="&#xcb;" horiz-adv-x="753" d="M51 0v1458h662v-303h-334v-254h309v-299h-309v-291h344v-311h-672zM86 1505v285h244v-285h-244zM422 1505v285h244v-285h-244z" />
<glyph unicode="&#xcc;" horiz-adv-x="430" d="M-61 1804h322l96 -299h-228zM51 0v1458h338v-1458h-338z" />
<glyph unicode="&#xcd;" horiz-adv-x="430" d="M51 0v1458h338v-1458h-338zM96 1507l96 299h322l-191 -299h-227z" />
<glyph unicode="&#xce;" horiz-adv-x="430" d="M-84 1505l123 299h356l123 -299h-240l-61 164l-61 -164h-240zM51 0v1458h338v-1458h-338z" />
<glyph unicode="&#xcf;" horiz-adv-x="430" d="M-72 1505v285h244v-285h-244zM51 0v1458h338v-1458h-338zM264 1505v285h244v-285h-244z" />
<glyph unicode="&#xd0;" horiz-adv-x="917" d="M0 629v231h51v598h434q125 0 203 -32.5t122 -114.5t60.5 -223.5t16.5 -358.5t-16.5 -357.5t-60.5 -223t-122 -115.5t-203 -33h-434v629h-51zM379 250h51q35 0 54.5 19.5t29.5 71.5t13 144.5t3 239.5q0 145 -3 238.5t-13 147.5t-29.5 74.5t-54.5 20.5h-51v-346h108v-231 h-108v-379z" />
<glyph unicode="&#xd1;" horiz-adv-x="929" d="M51 0v1458h309l220 -805v805h299v-1458h-318l-211 766v-766h-299zM152 1507q0 57 12.5 108.5t37 89t60 59t80.5 21.5q37 0 67 -9t57.5 -21.5t53 -21.5t52.5 -9q23 0 39 15.5t16 41.5h172q0 -59 -13 -109t-38 -88t-61.5 -59.5t-83.5 -21.5q-37 0 -66 9t-55.5 21.5 t-51 21.5t-51.5 9q-23 0 -39 -15.5t-16 -41.5h-172z" />
<glyph unicode="&#xd2;" horiz-adv-x="884" d="M31 725q0 217 16 360.5t61.5 229.5t125 120.5t206.5 34.5t208 -34.5t127 -120.5t62.5 -229.5t16.5 -360.5t-16.5 -359.5t-62.5 -226.5t-127 -117.5t-208 -33.5t-206.5 33.5t-125 117.5t-61.5 226.5t-16 359.5zM176 1804h322l96 -299h-228zM367 488.5q0 -91.5 6 -143.5 t21.5 -70.5t45.5 -18.5q31 0 46.5 18.5t22.5 70.5t7 143.5v238.5v238.5t-7 145.5t-22.5 71.5t-46.5 19.5t-46 -19.5t-21 -71.5t-6 -145.5v-238.5v-238.5z" />
<glyph unicode="&#xd3;" horiz-adv-x="884" d="M31 725q0 217 16 360.5t61.5 229.5t125 120.5t206.5 34.5t208 -34.5t127 -120.5t62.5 -229.5t16.5 -360.5t-16.5 -359.5t-62.5 -226.5t-127 -117.5t-208 -33.5t-206.5 33.5t-125 117.5t-61.5 226.5t-16 359.5zM305 1505l96 299h322l-191 -299h-227zM367 488.5 q0 -91.5 6 -143.5t21.5 -70.5t45.5 -18.5q31 0 46.5 18.5t22.5 70.5t7 143.5v238.5v238.5t-7 145.5t-22.5 71.5t-46.5 19.5t-46 -19.5t-21 -71.5t-6 -145.5v-238.5v-238.5z" />
<glyph unicode="&#xd4;" horiz-adv-x="884" d="M31 725q0 217 16 360.5t61.5 229.5t125 120.5t206.5 34.5t208 -34.5t127 -120.5t62.5 -229.5t16.5 -360.5t-16.5 -359.5t-62.5 -226.5t-127 -117.5t-208 -33.5t-206.5 33.5t-125 117.5t-61.5 226.5t-16 359.5zM141 1507l123 299h356l123 -299h-240l-61 164l-61 -164h-240 zM367 488.5q0 -91.5 6 -143.5t21.5 -70.5t45.5 -18.5q31 0 46.5 18.5t22.5 70.5t7 143.5v238.5v238.5t-7 145.5t-22.5 71.5t-46.5 19.5t-46 -19.5t-21 -71.5t-6 -145.5v-238.5v-238.5z" />
<glyph unicode="&#xd5;" horiz-adv-x="884" d="M31 725q0 217 16 360.5t61.5 229.5t125 120.5t206.5 34.5t208 -34.5t127 -120.5t62.5 -229.5t16.5 -360.5t-16.5 -359.5t-62.5 -226.5t-127 -117.5t-208 -33.5t-206.5 33.5t-125 117.5t-61.5 226.5t-16 359.5zM109 1512q0 57 12.5 108.5t37 89t60 59t80.5 21.5 q37 0 67 -9t57.5 -21.5t53 -21.5t52.5 -9q23 0 39 15.5t16 41.5h172q0 -59 -13 -109t-38 -88t-61.5 -59.5t-83.5 -21.5q-37 0 -66 9t-55.5 21.5t-51 21.5t-51.5 9q-23 0 -39 -15.5t-16 -41.5h-172zM367 488.5q0 -91.5 6 -143.5t21.5 -70.5t45.5 -18.5q31 0 46.5 18.5 t22.5 70.5t7 143.5v238.5v238.5t-7 145.5t-22.5 71.5t-46.5 19.5t-46 -19.5t-21 -71.5t-6 -145.5v-238.5v-238.5z" />
<glyph unicode="&#xd6;" horiz-adv-x="884" d="M31 725q0 217 16 360.5t61.5 229.5t125 120.5t206.5 34.5t208 -34.5t127 -120.5t62.5 -229.5t16.5 -360.5t-16.5 -359.5t-62.5 -226.5t-127 -117.5t-208 -33.5t-206.5 33.5t-125 117.5t-61.5 226.5t-16 359.5zM147 1507v285h244v-285h-244zM367 488.5q0 -91.5 6 -143.5 t21.5 -70.5t45.5 -18.5q31 0 46.5 18.5t22.5 70.5t7 143.5v238.5v238.5t-7 145.5t-22.5 71.5t-46.5 19.5t-46 -19.5t-21 -71.5t-6 -145.5v-238.5v-238.5zM483 1507v285h244v-285h-244z" />
<glyph unicode="&#xd7;" horiz-adv-x="952" d="M96 338l203 205l-186 188l174 174l188 -188l189 188l190 -188l-188 -189l188 -190l-174 -174l-191 188l-204 -205z" />
<glyph unicode="&#xd8;" horiz-adv-x="882" d="M31 0l73 150q-43 86 -58 225t-15 352q0 217 16 360.5t61.5 229.5t125 121t206.5 35q92 0 159 -18.5t114 -59.5l30 63h111l-74 -151q41 -86 57.5 -227.5t16.5 -352.5q0 -217 -16.5 -359.5t-62.5 -227.5t-127 -118.5t-208 -33.5q-92 0 -157.5 16t-112.5 57l-29 -61h-110z M367 463q2 -123 16 -165t57 -42q31 0 46.5 18.5t22.5 70.5t7 144.5v239.5v37zM367 686l149 305q-4 125 -18.5 169t-57.5 44q-31 0 -46 -19.5t-21 -71.5t-6 -145.5v-238.5v-43z" />
<glyph unicode="&#xd9;" horiz-adv-x="901" d="M51 442v1016h328v-1085q0 -74 18.5 -97.5t55.5 -23.5t53 23.5t16 97.5v1085h328v-1016q0 -246 -96.5 -350t-300.5 -104q-205 0 -303.5 104.5t-98.5 349.5zM176 1806h322l96 -299h-228z" />
<glyph unicode="&#xda;" horiz-adv-x="901" d="M51 442v1016h328v-1085q0 -74 18.5 -97.5t55.5 -23.5t53 23.5t16 97.5v1085h328v-1016q0 -246 -96.5 -350t-300.5 -104q-205 0 -303.5 104.5t-98.5 349.5zM326 1505l96 299h322l-191 -299h-227z" />
<glyph unicode="&#xdb;" horiz-adv-x="901" d="M51 442v1016h328v-1085q0 -74 18.5 -97.5t55.5 -23.5t53 23.5t16 97.5v1085h328v-1016q0 -246 -96.5 -350t-300.5 -104q-205 0 -303.5 104.5t-98.5 349.5zM150 1505l123 299h356l123 -299h-240l-61 164l-61 -164h-240z" />
<glyph unicode="&#xdc;" horiz-adv-x="901" d="M51 442v1016h328v-1085q0 -74 18.5 -97.5t55.5 -23.5t53 23.5t16 97.5v1085h328v-1016q0 -246 -96.5 -350t-300.5 -104q-205 0 -303.5 104.5t-98.5 349.5zM160 1509v285h244v-285h-244zM496 1509v285h244v-285h-244z" />
<glyph unicode="&#xdd;" horiz-adv-x="808" d="M-10 1458h319l92 -512l109 512h309l-256 -821v-637h-327v637zM295 1507l96 299h322l-191 -299h-227z" />
<glyph unicode="&#xde;" horiz-adv-x="866" d="M51 0v1458h328v-237h76q209 0 300 -112t91 -347q0 -123 -22.5 -211t-69.5 -144.5t-124 -82t-184 -25.5h-67v-299h-328zM379 545h47q51 0 70.5 52t19.5 157q0 113 -19.5 164t-70.5 51h-47v-424z" />
<glyph unicode="&#xdf;" d="M74 702v406h305v-406h-305z" />
<glyph unicode="&#xe0;" d="M74 702v406h305v-406h-305z" />
<glyph unicode="&#xe1;" d="M74 702v406h305v-406h-305z" />
<glyph unicode="&#xe2;" d="M74 702v406h305v-406h-305z" />
<glyph unicode="&#xe3;" d="M74 702v406h305v-406h-305z" />
<glyph unicode="&#xe4;" d="M74 702v406h305v-406h-305z" />
<glyph unicode="&#xe5;" d="M74 702v406h305v-406h-305z" />
<glyph unicode="&#xe6;" d="M74 702v406h305v-406h-305z" />
<glyph unicode="&#xe7;" d="M74 702v406h305v-406h-305z" />
<glyph unicode="&#xe8;" d="M74 702v406h305v-406h-305z" />
<glyph unicode="&#xe9;" d="M74 702v406h305v-406h-305z" />
<glyph unicode="&#xea;" d="M74 702v406h305v-406h-305z" />
<glyph unicode="&#xeb;" d="M74 702v406h305v-406h-305z" />
<glyph unicode="&#xec;" d="M74 702v406h305v-406h-305z" />
<glyph unicode="&#xed;" d="M74 702v406h305v-406h-305z" />
<glyph unicode="&#xee;" d="M74 702v406h305v-406h-305z" />
<glyph unicode="&#xef;" d="M74 702v406h305v-406h-305z" />
<glyph unicode="&#xf0;" d="M74 702v406h305v-406h-305z" />
<glyph unicode="&#xf1;" d="M74 702v406h305v-406h-305z" />
<glyph unicode="&#xf2;" d="M74 702v406h305v-406h-305z" />
<glyph unicode="&#xf3;" d="M74 702v406h305v-406h-305z" />
<glyph unicode="&#xf4;" d="M74 702v406h305v-406h-305z" />
<glyph unicode="&#xf5;" d="M74 702v406h305v-406h-305z" />
<glyph unicode="&#xf6;" d="M74 702v406h305v-406h-305z" />
<glyph unicode="&#xf7;" horiz-adv-x="825" d="M0 473v234h825v-234h-825zM283 242q0 61 41 105t98 44t98 -44t41 -105t-41 -105.5t-98 -44.5t-98 44.5t-41 105.5zM283 938q0 61 41 105t98 44t98 -44t41 -105t-41 -105.5t-98 -44.5t-98 44.5t-41 105.5z" />
<glyph unicode="&#xf8;" d="M74 702v406h305v-406h-305z" />
<glyph unicode="&#xf9;" d="M74 702v406h305v-406h-305z" />
<glyph unicode="&#xfa;" d="M74 702v406h305v-406h-305z" />
<glyph unicode="&#xfb;" d="M74 702v406h305v-406h-305z" />
<glyph unicode="&#xfc;" d="M74 702v406h305v-406h-305z" />
<glyph unicode="&#xfd;" d="M74 702v406h305v-406h-305z" />
<glyph unicode="&#xfe;" d="M74 702v406h305v-406h-305z" />
<glyph unicode="&#xff;" d="M74 702v406h305v-406h-305z" />
<glyph unicode="&#x152;" horiz-adv-x="1280" d="M70 725q0 217 16 358.5t60 224.5t122 116.5t203 33.5h768v-307h-334v-250h309v-299h-309v-291h344v-311h-778q-125 0 -203 31.5t-122 113.5t-60 222.5t-16 357.5zM426 729q0 -145 3 -239.5t13.5 -147.5t30 -73.5t53.5 -20.5h52v958h-52q-35 0 -54 -19.5t-29.5 -72.5 t-13.5 -145t-3 -240z" />
<glyph unicode="&#x153;" d="M74 702v406h305v-406h-305z" />
<glyph unicode="&#x178;" horiz-adv-x="808" d="M-10 1458h319l92 -512l109 512h309l-256 -821v-637h-327v637zM115 1507v285h244v-285h-244zM451 1507v285h244v-285h-244z" />
<glyph unicode="&#x2c6;" horiz-adv-x="602" d="M0 1210l123 299h356l123 -299h-240l-61 164l-61 -164h-240z" />
<glyph unicode="&#x2dc;" horiz-adv-x="647" d="M0 1231q0 57 12.5 108.5t37 89t60 59t80.5 21.5q37 0 67 -9t57.5 -21.5t53 -21.5t52.5 -9q23 0 39 15.5t16 41.5h172q0 -59 -13 -109t-38 -88t-61.5 -59.5t-83.5 -21.5q-37 0 -66 9t-55.5 21.5t-51 21.5t-51.5 9q-23 0 -39 -15.5t-16 -41.5h-172z" />
<glyph unicode="&#x2000;" horiz-adv-x="911" />
<glyph unicode="&#x2001;" horiz-adv-x="1823" />
<glyph unicode="&#x2002;" horiz-adv-x="911" />
<glyph unicode="&#x2003;" horiz-adv-x="1823" />
<glyph unicode="&#x2004;" horiz-adv-x="607" />
<glyph unicode="&#x2005;" horiz-adv-x="455" />
<glyph unicode="&#x2006;" horiz-adv-x="303" />
<glyph unicode="&#x2007;" horiz-adv-x="303" />
<glyph unicode="&#x2008;" horiz-adv-x="227" />
<glyph unicode="&#x2009;" horiz-adv-x="364" />
<glyph unicode="&#x200a;" horiz-adv-x="101" />
<glyph unicode="&#x2010;" horiz-adv-x="591" d="M31 473v275h530v-275h-530z" />
<glyph unicode="&#x2011;" horiz-adv-x="591" d="M31 473v275h530v-275h-530z" />
<glyph unicode="&#x2012;" horiz-adv-x="591" d="M31 473v275h530v-275h-530z" />
<glyph unicode="&#x2013;" horiz-adv-x="825" d="M0 473v275h825v-275h-825z" />
<glyph unicode="&#x2014;" horiz-adv-x="1085" d="M0 473v275h1085v-275h-1085z" />
<glyph unicode="&#x2018;" horiz-adv-x="419" d="M72 856v277q0 143 67.5 227t208.5 98v-119q-55 -10 -77.5 -49t-22.5 -100h100v-334h-276z" />
<glyph unicode="&#x2019;" horiz-adv-x="419" d="M72 856v119q55 10 77.5 49t22.5 100h-100v334h276v-276q0 -143 -67.5 -227.5t-208.5 -98.5z" />
<glyph unicode="&#x201a;" horiz-adv-x="419" d="M72 0v334h276v-277q0 -143 -67.5 -227t-208.5 -98v118q55 10 77.5 49.5t22.5 100.5h-100z" />
<glyph unicode="&#x201c;" horiz-adv-x="765" d="M72 856v277q0 143 67.5 227t208.5 98v-119q-55 -10 -77.5 -49t-22.5 -100h100v-334h-276zM418 856v277q0 143 67.5 227t208.5 98v-119q-55 -10 -77.5 -49t-22.5 -100h100v-334h-276z" />
<glyph unicode="&#x201d;" horiz-adv-x="765" d="M72 856v119q55 10 77.5 49t22.5 100h-100v334h276v-276q0 -143 -67.5 -227.5t-208.5 -98.5zM418 856v119q55 10 77.5 49t22.5 100h-100v334h276v-276q0 -143 -67.5 -227.5t-208.5 -98.5z" />
<glyph unicode="&#x201e;" horiz-adv-x="765" d="M72 0v334h276v-277q0 -143 -67.5 -227t-208.5 -98v118q55 10 77.5 49.5t22.5 100.5h-100zM418 0v334h276v-277q0 -143 -67.5 -227t-208.5 -98v118q55 10 77.5 49.5t22.5 100.5h-100z" />
<glyph unicode="&#x2022;" horiz-adv-x="815" d="M72 729q0 76 26.5 142.5t71.5 116.5t106.5 79t131.5 29t131 -29t106 -79t71.5 -116.5t26.5 -142.5t-26.5 -142.5t-71.5 -115.5t-106.5 -77.5t-130.5 -28.5q-70 0 -131.5 28.5t-106.5 77.5t-71.5 115.5t-26.5 142.5z" />
<glyph unicode="&#x2026;" horiz-adv-x="1345" d="M72 0v406h305v-406h-305zM520 0v406h305v-406h-305zM969 0v406h305v-406h-305z" />
<glyph unicode="&#x202f;" horiz-adv-x="364" />
<glyph unicode="&#x2039;" horiz-adv-x="485" d="M72 446v232l342 346v-283l-187 -180l187 -178v-283z" />
<glyph unicode="&#x203a;" horiz-adv-x="485" d="M72 100v283l186 178l-186 180v283l342 -346v-232z" />
<glyph unicode="&#x205f;" horiz-adv-x="455" />
<glyph unicode="&#x20ac;" horiz-adv-x="827" d="M0 524v158h63v31v88h-63v157h70q8 139 32.5 233.5t69.5 152t111.5 82t160.5 24.5q127 0 205 -43t121 -152l-240 -170q-14 66 -27.5 90.5t-56.5 24.5q-23 0 -37 -11t-21 -39t-11 -74t-4 -118h205l-35 -157h-170v-84v-35h149l-35 -158h-114q0 -86 3 -142t10 -88t21.5 -45 t38.5 -13q37 0 61.5 28.5t31.5 100.5l258 -119q-20 -78 -53 -129t-77 -81t-99.5 -42t-123.5 -12q-100 0 -168.5 26.5t-112.5 89t-66.5 167t-28.5 259.5h-68z" />
<glyph unicode="&#x2122;" horiz-adv-x="1128" d="M31 1280v174h405v-174h-119v-666h-167v666h-119zM469 614v840h258l59 -522l64 522h246l2 -840h-168v566l-64 -566h-159l-64 566v-566h-174z" />
<glyph unicode="&#xe000;" horiz-adv-x="1454" d="M0 0v1454h1454v-1454h-1454z" />
</font>
</defs>
</svg>
